<svg width="35" height="35" viewBox="0 0 35 35" fill="none" xmlns="http://www.w3.org/2000/svg">
<path d="M29.1667 5.83329V23.3333H11.6667V5.83329H29.1667ZM29.1667 2.91663H11.6667C10.0625 2.91663 8.75002 4.22913 8.75002 5.83329V23.3333C8.75002 24.9375 10.0625 26.25 11.6667 26.25H29.1667C30.7709 26.25 32.0834 24.9375 32.0834 23.3333V5.83329C32.0834 4.22913 30.7709 2.91663 29.1667 2.91663ZM16.7709 17.0187L19.2354 20.3145L22.8521 15.7937L27.7084 21.875H13.125L16.7709 17.0187ZM2.91669 8.74996V29.1666C2.91669 30.7708 4.22919 32.0833 5.83335 32.0833H26.25V29.1666H5.83335V8.74996H2.91669Z" fill="white"/>
</svg>
