<svg width="35" height="35" viewBox="0 0 35 35" fill="none" xmlns="http://www.w3.org/2000/svg">
<path d="M16.0417 34.4021V29.1521C8.73544 28.773 2.91669 22.7063 2.91669 15.3125C2.91669 7.67087 9.12919 1.45837 16.7709 1.45837C24.4125 1.45837 30.625 7.67087 30.625 15.3125C30.625 22.5313 25.6084 29.7938 18.1271 33.3959L16.0417 34.4021ZM16.7709 4.37504C10.7334 4.37504 5.83335 9.27504 5.83335 15.3125C5.83335 21.35 10.7334 26.25 16.7709 26.25H18.9584V29.6042C24.2667 26.25 27.7084 20.7375 27.7084 15.3125C27.7084 9.27504 22.8084 4.37504 16.7709 4.37504ZM15.3125 21.1459H18.2292V24.0625H15.3125V21.1459ZM18.2292 18.9584H15.3125C15.3125 14.2188 19.6875 14.5834 19.6875 11.6667C19.6875 10.0625 18.375 8.75004 16.7709 8.75004C15.1667 8.75004 13.8542 10.0625 13.8542 11.6667H10.9375C10.9375 8.44379 13.5479 5.83337 16.7709 5.83337C19.9938 5.83337 22.6042 8.44379 22.6042 11.6667C22.6042 15.3125 18.2292 15.6771 18.2292 18.9584Z" fill="white"/>
</svg>
