<svg width="35" height="35" viewBox="0 0 35 35" fill="none" xmlns="http://www.w3.org/2000/svg">
<path d="M27.7083 4.375H7.29167C5.6875 4.375 4.375 5.6875 4.375 7.29167V27.7083C4.375 29.3125 5.6875 30.625 7.29167 30.625H27.7083C29.3125 30.625 30.625 29.3125 30.625 27.7083V7.29167C30.625 5.6875 29.3125 4.375 27.7083 4.375ZM27.7083 27.7083H25.1854L27.7083 25.1854V27.7083ZM27.7083 23.3333H26.4688L22.0937 27.7083H19.7313L24.1063 23.3333H21.0146L16.6396 27.7083H14.2917L18.6667 23.3333H15.575L11.2 27.7083H8.51667L12.8917 23.3333H9.8L7.29167 25.8417V7.29167H27.7083V23.3333Z" fill="white"/>
<path d="M15.5604 16.0417L18.4771 18.9583L25.8854 11.5354L23.8292 9.47917L18.4771 14.8313L15.5604 11.9146L9.11458 18.3604L11.1708 20.4167L15.5604 16.0417Z" fill="white"/>
</svg>
