<svg width="35" height="35" viewBox="0 0 35 35" fill="none" xmlns="http://www.w3.org/2000/svg">
<path d="M27.7083 4.37504H21.6125C21 2.68337 19.3958 1.45837 17.5 1.45837C15.6042 1.45837 14 2.68337 13.3875 4.37504H7.29167C5.6875 4.37504 4.375 5.68754 4.375 7.29171V27.7084C4.375 29.3125 5.6875 30.625 7.29167 30.625H27.7083C29.3125 30.625 30.625 29.3125 30.625 27.7084V7.29171C30.625 5.68754 29.3125 4.37504 27.7083 4.37504ZM17.5 4.01046C18.0979 4.01046 18.5938 4.50629 18.5938 5.10421C18.5938 5.70212 18.0979 6.19796 17.5 6.19796C16.9021 6.19796 16.4063 5.70212 16.4063 5.10421C16.4063 4.50629 16.9021 4.01046 17.5 4.01046ZM27.7083 27.7084H7.29167V7.29171H27.7083V27.7084Z" fill="white"/>
<path d="M21.9917 16.0855L18.9 12.9938L10.2083 21.6709V24.7917H13.2708L21.9917 16.0855Z" fill="white"/>
<path d="M24.5729 13.5188C24.8646 13.2271 24.8646 12.775 24.5729 12.4834L22.5167 10.4271C22.225 10.1355 21.7729 10.1355 21.4813 10.4271L19.9354 11.973L23.0271 15.0646L24.5729 13.5188Z" fill="white"/>
</svg>
