<svg width="35" height="35" viewBox="0 0 35 35" fill="none" xmlns="http://www.w3.org/2000/svg">
<path d="M17.5 32.0834C19.1042 32.0834 20.4167 30.7709 20.4167 29.1667H14.5833C14.5833 30.7709 15.8958 32.0834 17.5 32.0834ZM26.25 23.3334V16.0417C26.25 11.5646 23.8729 7.81671 19.6875 6.82504V5.83337C19.6875 4.62296 18.7104 3.64587 17.5 3.64587C16.2896 3.64587 15.3125 4.62296 15.3125 5.83337V6.82504C11.1417 7.81671 8.75 11.55 8.75 16.0417V23.3334L5.83334 26.25V27.7084H29.1667V26.25L26.25 23.3334ZM23.3333 24.7917H11.6667V16.0417C11.6667 12.425 13.8688 9.47921 17.5 9.47921C21.1313 9.47921 23.3333 12.425 23.3333 16.0417V24.7917Z" fill="white"/>
</svg>
